<?xml version="1.0" standalone="no"?>
<!DOCTYPE svg PUBLIC "-//W3C//DTD SVG 20010904//EN"
 "http://www.w3.org/TR/2001/REC-SVG-20010904/DTD/svg10.dtd">
<svg version="1.0" xmlns="http://www.w3.org/2000/svg"
 width="500.000000pt" height="500.000000pt" viewBox="0 0 500.000000 500.000000"
 preserveAspectRatio="xMidYMid meet">

<g transform="translate(0.000000,500.000000) scale(0.100000,-0.100000)"
fill="#000000" stroke="none">
<path d="M3596 3230 c-3 -8 -8 -49 -10 -90 -5 -97 -4 -92 -16 -85 -11 7 -11
-51 -1 -70 5 -10 6 -15 9 -66 1 -14 11 -35 23 -48 l21 -22 -23 -20 c-12 -10
-29 -19 -38 -19 -12 0 -12 -3 -3 -12 9 -9 15 -9 24 0 7 7 22 12 34 12 31 0
298 150 278 157 -12 4 -109 -26 -166 -51 -21 -9 -38 -12 -38 -6 0 5 -16 1 -36
-11 -20 -11 -39 -17 -43 -14 -11 12 -13 149 -3 240 6 50 6 97 2 105 -8 13 -9
13 -14 0z"/>
<path d="M4065 3059 c-39 -19 -65 -39 -52 -39 9 0 117 52 117 56 0 9 -28 2
-65 -17z"/>
<path d="M1480 3011 c-14 -10 -43 -24 -65 -31 -36 -12 -37 -14 -17 -21 22 -8
22 -9 22 -269 0 -143 -3 -260 -7 -260 -3 0 -35 5 -70 11 -53 9 -63 14 -57 28
48 117 -8 226 -129 246 l-39 7 38 18 c59 27 86 62 91 117 11 125 -107 177
-359 158 -95 -7 -96 -7 -77 -26 18 -18 19 -36 19 -263 0 -261 -2 -272 -48
-240 -24 16 -69 19 -162 10 -103 -11 -110 -14 -110 -40 0 -28 19 -38 58 -30
45 8 230 10 225 2 -2 -5 5 -8 17 -8 18 0 19 -3 10 -21 -6 -11 -21 -24 -33 -29
-15 -6 8 -9 73 -9 69 0 90 2 78 10 -10 5 -18 19 -18 30 0 18 5 19 113 13 61
-4 114 -8 115 -10 7 -5 -43 -28 -78 -36 -25 -5 -18 -6 26 -3 68 5 117 22 107
38 -4 7 1 8 13 3 10 -4 38 -11 62 -16 50 -9 66 -20 31 -20 -13 0 -31 -5 -39
-10 -12 -8 -10 -10 10 -9 14 1 36 4 50 8 14 4 41 4 60 0 80 -16 121 -19 115
-9 -3 5 -18 11 -33 11 -17 1 -21 3 -9 6 9 2 15 8 12 12 -2 5 17 4 43 -1 26 -5
108 -9 182 -10 74 -1 138 -5 141 -11 4 -5 28 -4 64 3 105 22 174 110 175 223
0 123 -75 198 -210 210 -50 5 -70 0 -70 -17 0 -6 -17 -30 -39 -53 -21 -24 -51
-60 -67 -80 -47 -63 -113 -111 -134 -98 -5 3 -18 -5 -30 -17 l-21 -23 3 263
c2 144 1 262 -2 262 -3 0 -16 -9 -30 -19z m-393 -26 c17 -10 38 -30 47 -45 19
-33 21 -117 5 -154 -15 -32 -65 -56 -121 -57 -39 -1 -37 -2 24 -13 77 -14 115
-37 140 -87 17 -33 24 -112 13 -142 -5 -11 -27 -13 -113 -11 -59 2 -119 4
-134 4 l-28 0 0 258 c0 142 3 262 8 266 12 14 128 -1 159 -19z m799 -234 c95
-58 154 -234 109 -321 -19 -38 -63 -60 -115 -60 -34 0 -48 7 -85 41 -42 39
-85 113 -99 170 -5 22 5 40 60 108 36 44 73 81 82 81 9 0 31 -9 48 -19z m-251
-266 c9 -25 30 -59 47 -75 34 -35 36 -34 -65 -15 -95 18 -100 21 -92 48 6 20
72 87 86 87 4 0 14 -20 24 -45z"/>
<path d="M2866 2822 c-9 -14 9 -31 23 -23 7 5 10 14 7 20 -8 13 -23 14 -30 3z"/>
<path d="M2285 2790 c-55 -8 -111 -44 -124 -81 -19 -55 9 -91 119 -155 95 -55
124 -84 124 -128 0 -33 0 -33 33 -23 30 9 47 37 23 37 -5 0 -30 21 -56 47 -41
43 -45 52 -41 84 5 35 3 38 -42 62 -71 39 -93 64 -89 100 3 27 8 33 39 41 84
21 154 -19 168 -94 8 -47 13 -43 30 23 15 59 -10 77 -124 90 -11 2 -38 0 -60
-3z"/>
<path d="M3143 2789 c-72 -13 -80 -26 -13 -21 l60 4 51 -50 c32 -33 56 -49 66
-45 15 6 33 -12 33 -34 0 -7 -7 -13 -16 -13 -11 0 -14 -5 -9 -17 25 -65 21
-171 -8 -201 -15 -15 -19 -15 -52 1 -20 9 -42 17 -51 17 -8 0 -40 9 -71 20
-69 24 -73 24 -73 3 0 -9 -10 -27 -22 -40 l-21 -23 44 -20 c47 -21 176 -29
164 -10 -3 6 -17 10 -29 10 -33 0 -88 25 -110 49 -17 19 -17 21 -2 21 9 0 27
-6 39 -14 12 -7 52 -21 88 -30 36 -10 86 -31 110 -47 42 -28 43 -29 17 -29
-24 0 -28 -4 -28 -30 0 -27 44 -90 63 -90 3 0 -1 20 -9 45 -7 25 -11 45 -8 45
2 0 34 -13 71 -30 78 -35 77 -35 63 -11 -15 28 -13 31 20 31 17 0 30 5 30 10
0 6 9 10 20 10 11 0 20 5 20 11 0 8 -13 9 -42 4 -83 -15 -138 -1 -207 53 l-24
20 37 38 c41 42 72 128 62 175 -5 28 -4 29 32 29 20 0 47 3 60 6 l23 6 -3
-128 c-3 -126 -4 -129 -28 -141 -22 -11 -12 -13 75 -12 78 0 94 3 73 11 -20 7
-29 19 -34 44 -10 54 1 246 15 274 36 69 91 90 131 50 23 -23 24 -26 54 -210
20 -120 28 -148 46 -162 29 -24 63 -23 85 2 16 17 16 20 2 20 -23 0 -27 9 -47
140 -14 87 -16 129 -9 154 16 58 72 89 124 70 21 -8 43 -52 56 -114 l11 -50
38 30 c42 33 43 47 6 118 -21 41 -44 52 -103 52 -60 0 -105 -26 -132 -77 -17
-33 -20 -35 -21 -15 0 31 -61 92 -91 93 -72 3 -106 -13 -145 -70 l-24 -35 7
52 c3 29 4 52 2 52 -2 0 -28 -9 -57 -20 -59 -23 -94 -27 -44 -5 33 15 43 35
17 35 -8 0 -15 -3 -15 -8 0 -4 -10 -12 -22 -17 -31 -14 -33 -32 -5 -39 23 -5
43 -33 33 -43 -7 -7 -120 -21 -126 -16 -3 2 11 18 30 34 39 32 35 34 -21 17
-35 -10 -42 -9 -62 9 -48 44 -123 64 -194 52z"/>
<path d="M2694 2779 c-3 -6 -2 -15 4 -21 13 -13 32 -2 32 18 0 16 -26 19 -36
3z"/>
<path d="M1723 2751 c-41 -29 -74 -70 -87 -105 -5 -16 -4 -17 9 -6 8 7 31 34
50 60 19 26 49 55 67 63 18 9 26 17 17 17 -9 0 -34 -13 -56 -29z"/>
<path d="M2834 2728 c7 -48 5 -55 -30 -105 -26 -38 -40 -51 -48 -43 -7 7 -6
14 2 22 19 19 14 35 -10 33 -13 -1 -24 -9 -26 -19 -5 -23 -48 -39 -72 -26 -27
14 -63 96 -57 128 5 24 2 27 -24 29 -28 2 -39 -10 -19 -22 6 -3 10 -22 10 -41
0 -28 9 -43 50 -83 28 -27 50 -54 50 -61 0 -6 4 -9 9 -5 5 3 12 1 16 -5 3 -5
-3 -10 -14 -10 -11 0 -23 -5 -26 -11 -5 -6 -12 -4 -20 7 -7 11 -19 15 -29 11
-19 -7 -17 -32 1 -32 6 0 15 -3 19 -7 4 -5 16 -8 26 -8 11 0 16 -4 13 -10 -4
-6 7 -10 24 -10 17 0 31 -4 31 -10 0 -20 21 -9 30 15 11 30 30 33 37 5 3 -11
12 -20 20 -20 8 0 12 4 9 8 -3 5 5 8 17 8 12 -1 22 4 23 9 2 25 18 45 60 74
42 31 50 51 18 51 -8 0 -14 -6 -14 -13 0 -8 -17 -28 -39 -45 -33 -26 -44 -30
-75 -25 -42 7 -43 27 -2 28 27 0 29 4 47 75 11 41 24 79 29 84 17 17 11 55 -9
66 -32 16 -34 13 -27 -42z m-123 -175 c13 -16 12 -17 -3 -4 -17 13 -22 21 -14
21 2 0 10 -8 17 -17z m-26 -53 c-3 -5 -12 -10 -18 -10 -7 0 -6 4 3 10 19 12
23 12 15 0z"/>
<path d="M2721 2674 c0 -11 3 -14 6 -6 3 7 2 16 -1 19 -3 4 -6 -2 -5 -13z"/>
<path d="M3129 2572 c-42 -15 -87 -34 -100 -44 -24 -16 -24 -16 -4 -32 24 -19
36 -20 30 -3 -3 7 26 27 81 52 129 60 126 73 -7 27z"/>
<path d="M2153 2482 c-7 -30 -13 -60 -13 -67 0 -24 31 -45 67 -45 l36 0 -26
21 c-25 19 -44 64 -49 119 -2 17 -7 9 -15 -28z"/>
<path d="M4170 2469 c0 -11 5 -17 10 -14 6 3 10 13 10 21 0 8 -4 14 -10 14 -5
0 -10 -9 -10 -21z"/>
<path d="M2470 2403 c-8 -3 -33 -14 -55 -25 -44 -23 -232 -50 -241 -36 -6 10
-151 4 -161 -6 -18 -18 29 -21 207 -15 240 8 252 11 272 55 16 34 12 39 -22
27z"/>
<path d="M4298 2401 c-88 -5 -112 -10 -136 -28 -16 -12 -46 -25 -66 -28 -20
-4 -36 -12 -36 -17 0 -6 -6 -8 -13 -5 -8 3 -14 -4 -15 -20 -2 -28 -8 -29 102
11 37 14 76 32 85 40 33 30 163 47 203 25 17 -9 19 -8 16 8 -4 21 -3 21 -140
14z"/>
<path d="M2784 2375 c-10 -8 -14 -15 -7 -15 19 0 43 11 43 21 0 13 -14 11 -36
-6z"/>
<path d="M4076 2375 c-16 -12 -17 -15 -4 -15 9 0 18 7 22 15 7 18 6 18 -18 0z"/>
<path d="M1945 2340 c-16 -17 -16 -20 -3 -15 9 4 19 13 22 21 7 19 2 18 -19
-6z"/>
<path d="M1875 2329 c-11 -16 -1 -19 13 -3 7 8 8 14 3 14 -5 0 -13 -5 -16 -11z"/>
<path d="M3598 2323 c7 -3 16 -2 19 1 4 3 -2 6 -13 5 -11 0 -14 -3 -6 -6z"/>
<path d="M3616 2310 c-56 -22 -66 -33 -58 -64 13 -48 49 -62 188 -72 62 -4 94
-2 94 5 0 16 -11 19 -91 30 -134 17 -210 69 -124 85 18 4 38 13 45 21 16 19 6
18 -54 -5z"/>
<path d="M3920 2310 c0 -5 5 -10 11 -10 5 0 7 5 4 10 -3 6 -8 10 -11 10 -2 0
-4 -4 -4 -10z"/>
<path d="M4419 2289 c-11 -7 -11 -9 -1 -9 7 0 20 -7 28 -15 23 -23 46 -19 42
7 -3 25 -42 34 -69 17z"/>
<path d="M2037 2269 c6 -22 66 -63 115 -79 21 -6 40 -16 43 -20 3 -5 24 -14
45 -20 40 -11 49 -17 128 -89 23 -22 52 -43 65 -46 35 -10 71 -29 80 -42 8
-12 64 -43 79 -43 22 0 2 23 -54 61 -35 24 -65 45 -68 49 -3 3 -27 21 -55 40
-27 18 -61 43 -75 56 -30 26 -156 94 -176 94 -7 0 -40 13 -73 28 -50 25 -58
27 -54 11z"/>
<path d="M3510 2260 c0 -5 7 -7 15 -4 8 4 15 8 15 10 0 2 -7 4 -15 4 -8 0 -15
-4 -15 -10z"/>
<path d="M4008 2243 c6 -2 18 -2 25 0 6 3 1 5 -13 5 -14 0 -19 -2 -12 -5z"/>
<path d="M4415 2208 c-43 -43 -90 -58 -186 -59 -72 0 -90 -3 -85 -14 3 -8 -3
-15 -12 -17 -13 -3 -12 -5 6 -10 13 -4 20 -2 16 3 -3 6 5 7 21 3 23 -6 52 -2
172 22 12 2 34 16 48 30 20 20 32 24 52 19 30 -7 48 12 31 32 -15 18 -40 15
-63 -9z"/>
<path d="M4003 2213 c-7 -2 -13 -9 -13 -15 0 -6 7 -7 16 -4 9 4 22 1 30 -5 10
-8 13 -6 11 10 -1 20 -17 25 -44 14z"/>
<path d="M3370 2181 c0 -6 5 -13 10 -16 6 -4 8 -11 5 -16 -10 -15 5 -49 21
-49 17 0 11 29 -14 68 -15 24 -22 28 -22 13z"/>
<path d="M3916 2164 c-3 -8 2 -30 11 -47 15 -29 17 -30 23 -12 4 11 3 25 -2
32 -6 7 -4 13 4 15 9 3 6 9 -9 16 -17 9 -22 9 -27 -4z"/>
<path d="M4095 2120 c3 -5 8 -10 11 -10 2 0 4 5 4 10 0 6 -5 10 -11 10 -5 0
-7 -4 -4 -10z"/>
<path d="M3970 2100 c0 -5 15 -10 33 -10 24 0 28 3 17 10 -20 13 -50 13 -50 0z"/>
<path d="M1715 2065 c-3 -8 -7 -22 -10 -30 -5 -18 11 -20 22 -2 12 19 14 47 3
47 -6 0 -13 -7 -15 -15z"/>
<path d="M3950 2071 c0 -5 7 -12 16 -15 24 -9 28 -7 14 9 -14 17 -30 20 -30 6z"/>
<path d="M3392 2059 c3 -8 13 -16 24 -18 18 -3 59 -32 96 -67 15 -15 16 -15
12 3 -5 20 -7 21 -88 68 -31 18 -47 23 -44 14z"/>
<path d="M1973 1979 c-8 -19 -9 -39 -3 -52 5 -12 9 -17 10 -12 0 6 4 27 9 48
11 46 -1 57 -16 16z"/>
<path d="M1680 1901 c0 -5 5 -13 10 -16 6 -3 10 -2 10 4 0 5 -4 13 -10 16 -5
3 -10 2 -10 -4z"/>
<path d="M1814 1855 c-18 -13 -18 -14 4 -8 12 3 25 9 28 14 8 14 -10 11 -32
-6z"/>
<path d="M1927 1864 c-9 -10 2 -24 19 -24 8 0 14 7 14 15 0 15 -21 21 -33 9z"/>
<path d="M1752 1828 c5 -15 28 -23 28 -10 0 5 -7 13 -16 16 -10 4 -14 1 -12
-6z"/>
</g>
</svg>
